<svg version="1.2" xmlns="http://www.w3.org/2000/svg" viewBox="0 0 242 215" width="242" height="215"><defs><clipPath clipPathUnits="userSpaceOnUse" id="cp1"><path d="m36.8-5.98h171.75v207.75h-171.75z"/></clipPath><clipPath clipPathUnits="userSpaceOnUse" id="cp2"><path d=""/></clipPath><clipPath clipPathUnits="userSpaceOnUse" id="cp3"><path d="m77 40h65v116h-65z"/></clipPath><clipPath clipPathUnits="userSpaceOnUse" id="cp4"><path d="m77.32 40.44h63.68v114.56h-63.68z"/></clipPath><clipPath clipPathUnits="userSpaceOnUse" id="cp5"><path d="m9.29 151.85h226.42v58.06h-226.42z"/></clipPath><clipPath clipPathUnits="userSpaceOnUse" id="cp6"><path d="m7.91 150.47h229.18v58.06h-2.75v-55.31h-223.68v55.31h-2.75zm0 60.81h229.18v-2.75h-229.18z"/></clipPath></defs><style>.a{fill:#fff}.b{fill:#00bd82}.c{fill:#003024}.d{fill:#00ffb0}.e{fill:#000e0a}</style><g clip-path="url(#cp1)"><path class="a" d="m207.1 150.8c-2.3-19.8-8.2-39.4-16.8-55.1-5.8-10.6-12.3-18.8-18.9-23.7 3.7-6.9 3.4-13.3 2.1-18l-0.1-0.5c-3.1-11.8-7.6-24.6-17-29.7-6-3.2-16.7-4.3-24.6-4.3-18.5 0-22.5 5.2-23.8 7-9.2 12.2-16.6 32.7-13 48.4q0.9 4 4 7.7c-3.7 2.9-6.8 6.3-9.2 9.4l-1.7-1.3-4.4-10.2-24.6-13.8-0.7 10.9q-1-0.3-2.1-0.5-2.4-1.2-4.9-1.2-1.1 0-2.2 0.2l-6.5 1.6 0.3 2.7-2.6 0.6 0.6 5.1-4.1 0.6 11.9 22.1h12.9l1.3 4.2-5.8 18.8 14.8 69.8 44.9-22.3 6.1-20.1h85zm-138.5-88c8.8 0 16.9-6.2 19.3-14.8q0.6-2.1 0.7-4.4c0.3-8.4-4.4-16.4-5.9-18.6-1.8-2.8-2.6-5.6-3.6-9.3l-6-21.7-8.3 20.9q-0.1 0.3-0.2 0.5l-6.6-8.2-1.6 18.6c0 0.9-1.1 2.4-2.2 3.9-2.2 3.1-5.3 7.3-5.2 13.3 0.3 11.1 8.9 19.8 19.6 19.8z"/></g><path fill-rule="evenodd" class="b" d="m202.5 154.8l-81.5-1-7.8 21.4-36.3 18.1-13.9-62.2 6.7-11.5 1.1-3.8 0.4 1.2 13-22.5 6.3 4.7 16.4-15.3c0 0-5.5-6.8-6.1-11-0.6-4.2 2.3-39.2 13.5-45.1 11.1-5.9 38.6-2.3 42 1.7 3.5 4 14.9 31 12.2 37.1-2.6 6.1-5.5 9.6-5.5 9.6 0 0 4.3-3.9 10.8 5.1 6.5 8.9 15.3 22.1 20.3 38 5.1 15.8 8.4 35.5 8.4 35.5zm-114.8 14.8q0.5-2.2 1.1-4.5c0.4-1.6 0.8-3.2 1.2-4.8q0.5-2.5 1.1-5 0.6-2.5 1.1-4.9c0.4-1.7 0.7-3.3 1-4.8q0.5-2.4 1-4.6 0.4-2.1 0.7-4c0.5-2.5 0.9-4.6 1.1-6.1q0.2-1.1 0.3-1.7 0.1-0.6 0.1-0.6 0 0-0.2 0.6-0.2 0.5-0.5 1.6c-0.4 1.5-1 3.5-1.7 6q-0.5 1.8-1 4-0.6 2.1-1.2 4.4-0.5 2.4-1.1 4.8-0.6 2.5-1.2 5-0.5 2.5-1.1 4.9c-0.3 1.7-0.7 3.3-1 4.9q-0.5 2.3-0.9 4.5-0.4 2.1-0.8 4c-0.4 2.6-0.8 4.7-1 6.1-0.3 1.5-0.4 2.3-0.4 2.3 0 0 0.3-0.8 0.7-2.2 0.4-1.4 1-3.5 1.6-6q0.5-1.8 1.1-3.9zm47.8-81.8q-0.2 0.1-0.3 0.1v-2.5l-1-7.2 2-0.1-10.2-15.3-7.4-2-2.6 2.9-6.5 14.1h4c0 0-3.8 10.6-4.3 12.4-0.4 1.4 11.9 35.5 11.9 35.5l15.8-27.1zm-29.8-24.1q0.2-1 0.4-2.1 0.2-1.1 0.5-2.3 0.3-1.3 0.6-2.6c0.3-0.9 0.6-1.9 0.8-2.8q0.5-1.4 1-2.8c0.6-1.9 1.3-3.8 2.1-5.5 0.3-0.8 0.7-1.7 1.1-2.4q0.5-1.2 1.1-2.2 0.3-0.4 0.5-0.9 0.3-0.4 0.6-0.8 0.5-0.7 0.9-1.2 0.4-0.5 0.7-0.8 0.3-0.2 0.3-0.2 0 0-0.3 0.1-0.4 0.2-0.9 0.6c-0.4 0.3-0.8 0.7-1.2 1.1q-0.7 0.7-1.4 1.6-0.7 1-1.4 2.1-0.7 1.1-1.3 2.4c-0.5 0.9-0.9 1.8-1.3 2.7q-0.6 1.4-1.1 2.8-0.5 1.5-0.9 3-0.4 1.4-0.7 2.8-0.3 1.4-0.4 2.8-0.1 0.6-0.2 1.2 0 0.6-0.1 1.2 0 0.6 0 1.1 0 0.5 0 1 0 1 0.1 1.6c0 0.5 0 0.8 0.1 1.1q0 0.3 0 0.3 0 0 0.1-0.3 0-0.4 0.1-1.1 0.1-0.6 0.2-1.5zm10.9-16.9c0.2 2.2 3.5 2.2 3.5 0-0.1-4.1 2.2-9.2 7-8.3 2.3 0.4 3.1-2.6 0.9-3.4-7-2.8-11.7 5.9-11.4 11.7z"/><path fill-rule="evenodd" class="c" d="m76.5 135c1.4 9 3.9 26.6 4.8 33l-4 18.7-0.4-1.9-4.2-62.7zm40.7 16.7q0 0.2 0 0.3l-3 10.1-6.3-33.5-2.5 47.1v0.7l5.2-2.3-15.5 7.7q0-0.4 0.1-1c1.3-8.4 7.1-47.9 7.2-54 0-0.3 0.3-1.8 0-2-0.5-0.5-5.9-2.7-9.3-4.1l0.2-0.6q0 0 0 0 0-0.2-0.1-0.5l-9-20.9 7.2 5.6 19.3 14.9zm35-91c2-5.4 2.6-11.2 2-16.9-0.4-4.6-1.6-9-3.3-13.3q0.8 0.3 1.4 0.6c7.5 4.1 11.5 18.9 12.9 24.5l0.2 0.5c4.4 16.7-18.4 27.5-30.3 31.8v-3.2c3.5-3.1 6.7-6.5 9.5-10.2 3.2-4.2 5.9-8.8 7.6-13.8zm-15.7 12.4q-0.6 0.9-1.4 2.1v-0.1-4.6l5.2-7.5c-0.6 3-1.5 5.9-2.8 8.4q-0.1 0.2-0.2 0.3-0.1 0.3-0.2 0.5-0.3 0.5-0.6 0.9zm-27.1 4.7c-1.1-3.6-1.6-7.4-1.5-11.2 0.1-5.1 1.5-10.1 4.1-14.4q1.2-1.9 2.6-3.8v0.1l1.1 3.6-5 6.4 4 1.3q0.2 1.6 0.5 3.3l-3 7.7q0-1.1 0.1-2.4c0.1-0.3 0-0.6-0.2-0.8q-0.2-0.1-0.4-0.2c-0.5 0-0.9 0.3-1 0.7-0.2 1.5-0.2 2.7 0 3.7q0 0 0 0 0 0.1 0 0.1 0.1 0.9 0.4 1.6zm0.3 1h2.3l-1 3.2q-0.7-1.6-1.3-3.2zm12.4-26.8c-0.1-0.6-0.4-1.4-0.6-2.2l0.1 0.2 7.8-2.3 2 1.2c-2.7-0.8-5.1 0.6-7 1.1-0.1 0.1 1.2 0.8 2.6 1.4h-4.6c0 0-0.1 0.2-0.3 0.6zm4.1 3.8c-1.6 0.5-3.4 0.8-5.1 0.8 0.2-0.1 0.4-0.9 0.6-1.8 1.6 0 4.4 0.1 6.1-0.6 0.9-0.4 1.7-1.3 2.2-2-0.1 1.9-2.1 3-3.8 3.6zm-4.6 11.3l0.2 0.7-3.3-0.2v-0.4zm9.1 1.2q0.3-0.5 0.7-0.9c1.8-1.9 3.9-3.5 5.9-5.1q1.8-1.5 3.6-3.1v0.1 0.1l-2 2.7-5.4 7.8v2.7zm38.2 82.5l6.3-27-13.7 27h-22.4c2.7-1.5 8.9-5.2 14.7-9.6q-0.2-0.1-0.4-0.1c-15.5-5.2-24.2-11.4-30.2-17.2l0.2-0.3 17.8-22.8-2.5-9c0 0 25.4-6.7 26.9-13.7 5.8 4.1 12 11.7 17.4 21.6q2.8 5.2 5.2 10.8c-3.3 1.2-16.2 6-25.1 13.3-10.4 8.5-25.2 4.7-25.2 4.7v0.8c0 0 16.4 7.2 28-0.8 9.9-6.8 22.4-8.6 25.7-8.9 3.4 9.9 5.8 20.5 7.1 31.2zm-41.3-30.8c9.3 8.8 51.6 2 42.8-28.4-6.8 5.4-20.9 7.1-27 6.2 0.1 1.3 0.7 9.4 0.9 9.5-0.4 0.2-10.3 7.8-16.7 12.7zm-32.9-19.4c0 0 4.8-6.3 17.8 4.2l4.2 11.8c-3.1-3.9-5.7-7.3-9.4-9.8-10.8-7.5-12.6-6.2-12.6-6.2z"/><path fill-rule="evenodd" class="d" d="m141.2 52.2l-1.9 2.4-10.1 6-1.4 4-1.2-1.9-8.1-2.2-2.1 1.7-0.2-0.7q-0.1-0.5-0.1-1.1l-0.1-0.7 0.9 0.3 0.2-0.7-4.3-1.4 5.7-7.3-0.7-0.5-1 1.3-0.9-3v-0.1c0-1.2 0.4-11.7 8.7-12.7q0.1 0 0.3 0c-0.9 0.2-1.9 0.6-2.7 1.1q1.1-0.5 2.4-0.6 2.2-0.3 4.3-0.2-0.7-0.3-1.5-0.4 2.3 0 4.4 0.4l0.2 0.1q0.1 0.1 0.3 0.2l0.2 0.1q0.2 0.1 0.3 0.2l0.2 0.1q0.1 0.1 0.3 0.2l0.2 0.2q0.2 0.1 0.3 0.2h0.1q0.2 0.2 0.4 0.3l0.2 0.2q0.1 0.1 0.3 0.2l0.1 0.1q0.1 0.2 0.3 0.3l0.2 0.2q0.1 0.1 0.2 0.2 0.1 0.1 0.2 0.2 0.2 0.2 0.3 0.4l0.2 0.2q0.2 0.3 0.5 0.6 0.1 0.1 0.1 0.2c2.3 3 3.7 7.1 4.3 11.7zm-18.5-14.6c-0.3 0-0.5 0.2-0.7 0.3-0.2 0.1-0.4 0.3-0.6 0.4q-0.3 0.2-0.6 0.5l-0.6 0.5c-0.2 0.2-0.3 0.4-0.5 0.6q-0.2 0.3-0.4 0.6-0.2 0.4-0.4 0.7-0.1 0.3-0.3 0.6-0.1 0.4-0.2 0.7-0.2 0.3-0.2 0.6-0.2 0.6-0.3 1.2 0 0.3 0 0.5 0 0.3-0.1 0.5 0 0.5 0.1 0.8c0 0.4 0 0.6 0 0.6 0 0 0.1-0.2 0.3-0.6q0.1-0.3 0.3-0.7 0-0.2 0.1-0.4 0.1-0.2 0.2-0.5c0.1-0.3 0.3-0.6 0.5-1q0.1-0.2 0.3-0.5c0.1-0.1 0.2-0.3 0.3-0.5q0.2-0.3 0.3-0.5 0.2-0.3 0.4-0.6 0.2-0.2 0.4-0.5c0.1-0.1 0.3-0.3 0.4-0.5l0.5-0.4q0.2-0.2 0.5-0.4c0.1-0.2 0.3-0.3 0.4-0.4q0.3-0.2 0.6-0.4 0.2-0.1 0.5-0.3 0.2-0.1 0.5-0.3c0.3-0.2 0.7-0.3 1-0.4q0.2-0.1 0.4-0.2 0.2-0.1 0.5-0.1 0.4-0.2 0.7-0.2c0.4-0.1 0.6-0.2 0.6-0.2 0 0-0.2-0.1-0.6-0.1-0.3-0.1-0.5-0.1-0.8-0.1-0.3 0-0.7-0.1-1 0-0.4 0-0.8 0.1-1.2 0.2q-0.4 0.1-0.7 0.2-0.3 0.1-0.6 0.3zm-57.8 7.1c1.1-2.2 3.5-3.3 4.6-5.5 0.3 4.2 3.9 3.2 4.8 6.5 0.8 3.3-2.2 7.2-5.9 6.3-3.8-0.9-4.4-5.7-3.5-7.3zm12.7 39.9l15.2 35.3-8.6 38.4-17.1-56.2c-0.1 0.1-3.2-0.4-5.3-0.2-2 0.3-4.1 0.8-6.2 0.6-3.5-0.3-5.3-2.9-6.8-5.8-1.8-3.4-1.6-7.5-0.2-10.9 1.1-2.6 3.5-3.7 6.1-2.4 1.5 0.8 2.6 1.8 3.9 2.9 1.5 1.1 3.6 1.1 5.3 2q0.6 0.1 1 0.4c0.1-0.4 2.7-2.7 2.8-2.7-0.2-0.3-2.6-3.4-3.3-4.9-0.8-1.9 2-3.6 2.9-1.7 0.3 0.8 10.3 5.2 10.3 5.2zm1.5 9.1q-1.1-3.3-2.7-6.5l-0.1-0.3-0.2-0.1q-0.9-0.3-1.8-0.6-0.5-0.2-0.9-0.3-0.5-0.2-1-0.3 0.4 0.3 0.8 0.6 0.4 0.3 0.8 0.6 0.7 0.5 1.4 0.9 0.9 3.4 2.2 6.6 0.7 1.6 1.5 3.2 0.4 0.8 0.8 1.6 0.4 0.8 0.9 1.5-0.1-0.9-0.3-1.7-0.2-0.9-0.4-1.8-0.4-1.7-1-3.4zm42.6-26.5l0.2 0.7-3.4-0.2 0.1-0.4z"/><g clip-path="url(#cp2)"><g clip-path="url(#cp3)"><g clip-path="url(#cp4)"><path fill-rule="evenodd" class="c" d="m140.8 52.1l-0.4 0.4-1.4 1.8-11.3 9.4-0.9-1.3-2-0.6c0.3-0.8 0.6-1.6 1-2.3 0.9-1.7 2.9-2.4 4.5-3.3 2.5-1.3 5.2-2.2 7.4-3.9 0.5-4 0.3-8-1.1-11.7 2.3 3.1 3.7 7.2 4.2 11.5zm-57.9 47.6l8.8 20.3-7.5 34.8-6.5-21.7q0.3-1.1 0.6-2.2c1.6-5.7 2.9-11.4 3.5-17.3 0.5-4.6 0.9-9.3 1.1-13.9zm50.7-1l-12.4 25.5-4.3-12.1c4.8-7 9.4-14.2 11.7-22.4 1.1-3.6 1.6-7.2 1.4-10.9h3.5z"/></g></g></g><path fill-rule="evenodd" class="e" d="m52.2 43c-0.1-5 2.5-8.5 4.6-11.3 1.4-2 2.7-3.7 2.8-5.6l0.9-10.5 5.9 7.1c0-1.9 0.4-3.9 1.4-6.5l4.7-11.9 3.4 12.3c1.1 3.9 2 7 4 10.2 1.4 2 5.7 9.3 5.4 16.7q-0.1 1.9-0.6 3.6c-2 7.2-8.8 12.5-16.1 12.5-9 0-16.2-7.3-16.4-16.6zm5.1-0.1c0.1 6.5 5.1 11.6 11.3 11.6 5 0 9.8-3.8 11.2-8.8q0.4-1.1 0.4-2.4c0.2-4.7-2.2-10.2-4.5-13.8-1.9-3-3-5.8-4-8.9-0.3 1.6-0.3 2.9-0.3 4.8q0 0.8 0 1.8c0 2.3-0.3 10-3.6 10q-0.1 0-0.2 0l-0.7-0.1v-0.7c-0.1-2.9-0.9-5.5-2.5-7.9-0.7 2.3-2.1 4.3-3.5 6.2-1.9 2.5-3.7 4.9-3.6 8.2zm147.1 113h-83.8l-6.4 21.2-39.9 19.8-13.7-64.9 5.8-19-2.3-7.5h-13.4l-8.7-16.2 2.8-0.4c-0.3-0.8-0.4-1.3-0.4-1.6l-0.4-3.8 2.5-0.6-0.3-2.7 3.7-0.9q0.7-0.2 1.5-0.2 2 0 3.9 1.2c2.7 0.1 5.2 1.4 6.9 3.5v0.1q0.1 0.1 0.1 0.2c-0.6-2-0.8-3.9-0.7-5.2l0.4-6.8 19.1 10.7 4.3 9.9 4.9 3.9c3-4 7.8-9.8 13.6-13.6-3.1-2.8-5-5.7-5.8-8.8-3.3-14.6 4-34.4 12.5-45.7 3.6-4.8 13.5-5.8 21.2-5.8 7.2 0 17.6 1.1 23 4 9.5 5 13.7 20.9 15.4 27.6l0.2 0.5c1.2 4.6 1.4 11.2-3.4 18.1 7 4.4 14.2 12.9 20.5 24.4 8.3 15.3 14.2 34.5 16.4 53.9zm-93.4-73.9l1.1-3.3h-3l0.4-1 1.7-4.3q-0.3-0.7-0.5-1.6 0 0 0 0 0 0 0-0.1c-0.1-1-0.1-2.2 0.1-3.6 0.1-0.4 0.5-0.8 0.9-0.7q0.3 0 0.4 0.2c0.2 0.2 0.3 0.4 0.3 0.7q-0.2 1.4-0.1 2.4l3-7.6q-0.4-1.7-0.6-3.4l-4-1.3 5-6.4-1.1-3.5v-0.1c0-0.1 0.1-10.7 7.5-13.5q-0.8 0.1-1.6 0.3-0.1 0-0.2 0.1-0.3 0-0.5 0.1-0.2 0-0.4 0.1-0.2 0-0.4 0.1-0.4 0.1-0.7 0.2-0.1 0-0.2 0c-0.4 0.1-0.8-0.1-1-0.5-0.1-0.4 0.1-0.8 0.4-1q0.1 0 0.2-0.1 0.3 0 0.6-0.1 0.2-0.1 0.4-0.1 0.2-0.1 0.4-0.1 0.3-0.1 0.6-0.2 0.2 0 0.4-0.1 0.3 0 0.6-0.1 0.2 0 0.3 0 0.4-0.1 0.7-0.2 0.1 0 0.2 0 0.4 0 0.8-0.1 0.1 0 0.2 0 0.4 0 0.8-0.1 0 0 0.1 0c5.3-0.3 9 1.5 11.6 3.8q0.1 0.1 0.2 0.1 0.1 0.1 0.2 0.2 0.2 0.2 0.3 0.3 0 0 0.1 0.1c1.8 1.7 3.2 4 4.3 6.6q0.1 0.2 0.2 0.4 0 0.2 0.1 0.4 0.9 2.5 1.4 5.3v-0.1l0.1 0.5c0.5 3.8 0.5 7.8-0.2 11.6q0 0.1 0 0.2-0.1 0.4-0.1 0.8-0.1 0.3-0.1 0.6-0.1 0.1-0.1 0.3-0.6 2.7-1.5 5.1 0 0 0 0-0.2 0.5-0.4 0.9 0 0.1-0.1 0.2-0.1 0.4-0.3 0.7-0.1 0.2-0.2 0.4-0.1 0.3-0.3 0.6-0.1 0.3-0.3 0.6-0.1 0.2-0.2 0.3-0.2 0.5-0.5 0.9c-0.5 0.8-1.2 1.7-1.9 2.7l1.5 2.1h-2.5v5.9 3.3c11.9-4.4 34.8-15.1 30.3-31.8l-0.1-0.5c-1.5-5.6-5.4-20.5-12.9-24.5q-0.6-0.3-1.4-0.6c-4.2-1.7-11.6-2.8-19.3-2.8-8.8 0-15.4 1.5-17.1 3.8-7.9 10.5-14.4 28.9-11.5 41.5 0.7 3.4 4 6.4 7.9 9zm7.3-12.8l-1.3 9.5h-3.2l-4.2 12.9 7.3 20.5 4.2 12.1 12.4-25.6v-19.9h-7.8l-3.2-9.3zm16.2 7.9l-8.8-13.4-7-1.9-1.8 1.5-5.5 13.8h4.1l1.6-11.5 5.7-0.2 4 11.7zm-12.6-9.3l-0.3-0.7-3 0.1-0.1 0.4zm-4.3-8.8l-0.5 1.5-0.7-0.2q0.1 0.6 0.2 1.2l1.8-1.5 6.4 1.8 2 0.5 0.9 1.4 1.2-3.3 10-6.1 1.5-1.8 0.4-0.4c-0.5-4.3-1.9-8.4-4.2-11.5q0 0 0 0-0.1-0.2-0.2-0.3-0.2-0.3-0.5-0.5 0-0.1-0.1-0.2-0.2-0.2-0.3-0.4-0.1-0.1-0.2-0.2-0.2-0.1-0.3-0.3-0.2-0.2-0.4-0.4-0.1 0-0.1-0.1-0.2-0.1-0.4-0.3-0.2-0.2-0.5-0.3 0-0.1 0-0.1-0.2-0.1-0.5-0.3-0.2-0.1-0.4-0.3-0.1 0-0.1-0.1-0.2-0.1-0.5-0.2-0.1-0.1-0.3-0.2-0.1-0.1-0.2-0.1c-2.2-0.5-4.6-0.5-7-0.3-7.9 1-8.3 11-8.4 12.3l0.8 2.2 0.7-0.9 1.3 1-5.6 7zm15.9 11l5.5-7.8 1.9-2.8v-0.1-0.5l0.1-4.1q0-0.2 0-0.3l-0.9 1.1-0.1 0.1-9.8 5.9-1.4 3.9 1.9 2.9 2.8 4.3zm1.6 0.6l0.1 4.6v0.1q0.8-1.2 1.4-2.1 0.3-0.4 0.6-0.9 0.1-0.2 0.2-0.5 0.1-0.1 0.2-0.3c1.3-2.5 2.2-5.4 2.8-8.4zm-67.2 29.9l9.7 32.7 6.5 21.7 7.5-34.8-8.8-20.3-5.7-13.3-10.5-5.9c0.3 1.6 1 3.9 2.9 4.9q0.3 0.1 0.4 0.4 0.2 0.4 0 0.7l-1.4 2.9c-0.2 0.2-0.5 0.4-0.8 0.4h-1.5c0.5 1.1 1.7 2.7 3.8 3.7l-0.6 1.5c-2.5-1.1-3.8-2.9-4.6-4.2l-4.5 7.7h-5.8l-0.2-0.3c-0.1-0.1-1.5-2.3-2.2-3.2-0.6-0.8-1.4-1.2-2-1.4l3.6 6.8c0 0 14.2 0 14.2 0zm-16-16.1c0.4 0.9 1.1 2.7 2.6 5.9 0.9 1.3 1.6 2.6 1.9 3.3h5l0.8-1.4h-4.2l-0.3-0.5c-1.1-2.3-3.7-6.5-5.8-7.3zm-2.2 3.4c0.3 0.8 0.9 2.3 2.1 4.9 0.6 0.3 1.1 0.8 1.6 1.4 0.5 0.8 1.5 2.2 2 2.9h3.9l1.1-1.8h-5l-0.2-0.5c-1.3-2.7-3.7-6.2-5.5-6.9zm6.2-2.2l0.1 0.3c1.4 1.7 2.5 3.7 3 4.6h4.1l0.4-0.7h-2.6q-0.4 0-0.6-0.2c-0.1-0.1-1.6-1.6-2.2-2.6-0.7-0.8-1.5-1.2-2.2-1.4zm21.3 101.2l4.1-18.7c-0.9-6.4-3.5-24-4.8-33.1l-3.9-12.8-1.9-6.3-4.9 16.4 11.1 52.6zm39.2-35.1l-5.8-32.4-19.3-15-7.2-5.6 9 21 0.1 0.2-0.1 0.3q0 0 0 0l-0.1 0.6-13.1 60.8-1.6 7.6 16.8-8.3 10.2-5.1 2.5-47.1 5.9 31.8zm82.2-0.8c-1.3-10.8-3.7-21.4-7.1-31.3-3.3 0.4-15.7 2.2-25.7 9-11.6 8-28 0.8-28 0.8v-0.8c0 0 14.8 3.8 25.2-4.7 9-7.3 21.8-12.1 25.1-13.3q-2.4-5.7-5.2-10.8c-5.4-9.9-11.6-17.6-17.4-21.7-1.5 7-26.9 13.8-26.9 13.8l2.5 8.9-17.8 22.9-0.2 0.3-0.2 0.2 0.1-0.2-2.2 4.5-4.2-11.8-0.6-1.9-6.8-19.2-1.3-3.9 1.9-6.1c-8.5 3.5-15.9 14.5-17.6 17.3l19.9 15.4 0.6 3.4 13.5 29.2h35.2l13.7-27-6.3 27zm-68.1-99.5c0 0-0.2 0.4-0.5 0.9-0.5 0.7-1.3 1.6-2.3 2-1.6 0.7-4.5 0.6-6 0.6q-0.5-0.1-0.8-0.1c0.2-0.8 0.8-2.1 1.2-2.8 0.2-0.3 0.3-0.6 0.3-0.6zm-9-1.5l-1.7-3.3 9.5-1.5 3.9 5-1.9-1.1-2-1.2-7.7 2.3z"/><g clip-path="url(#cp5)"><path class="c" d="m7.9 150.5h229.3v60.8h-229.3z"/></g><g clip-path="url(#cp6)"><path class="a" d="m7.9 150.5h229.3v60.8h-229.3z"/></g><path class="d" d="m55.9 182.4h-20.1v-17.2h7.2v12.9h12.9z"/><path fill-rule="evenodd" class="d" d="m69.3 182.7q-6.3 0-9.3-2.6-2.7-2.3-2.7-6.3 0-4 2.7-6.3 3-2.7 9.3-2.7 6.4 0 9.4 2.7 2.7 2.3 2.7 6.3 0 4-2.7 6.3-3 2.6-9.4 2.6zm0-4.6q2.7 0 3.9-1.5 1-1.2 1-2.8 0-1.7-1-2.9-1.2-1.5-3.9-1.5-2.6 0-3.8 1.5-1 1.2-1 2.9 0 1.6 1 2.8 1.2 1.5 3.8 1.5z"/><path fill-rule="evenodd" class="d" d="m111.2 182.4h-7.3l-1.6-2.9h-10.9l-1.6 2.9h-7.3l11-17.2h6.7zm-11.4-7.1l-2.9-5.2-3 5.2z"/><path class="d" d="m138.8 182.4h-8.6l-9.7-11.7v11.7h-7.2v-17.2h8.5l9.7 11.6v-11.6h7.3z"/><path class="d" d="m169.6 182.4h-6l-4.2-11.2-4.3 11.2h-6l-8.3-17.2h7.4l4.3 10.9 4.6-10.9h4.5l4.6 10.9 4.4-10.9h7.3z"/><path class="d" d="m187.2 182.4h-7.2v-17.2h7.2z"/><path class="d" d="m210 182.4h-19.9v-4.3l11.4-8.7h-11.4v-4.2h19.9v4.2l-11.4 8.7h11.4z"/></svg>